Coordinates
version=1
nRows=16
nColumns=22
inDegrees=yes

Units are S.I. units (second, meters, Newtons, ...)
If the header above contains a line with 'inDegrees', this indicates whether rotational values are in degrees (yes) or radians (no).

endheader
time	pelvis_tilt	pelvis_list	pelvis_rotation	pelvis_tx	pelvis_ty	pelvis_tz	hip_flexion_r	hip_adduction_r	hip_rotation_r	knee_angle_r	ankle_angle_r	subtalar_angle_r	hip_flexion_l	hip_adduction_l	hip_rotation_l	knee_angle_l	ankle_angle_l	subtalar_angle_l	lumbar_extension	lumbar_bending	lumbar_rotation
      1.39000000	    -13.63574682	     -0.38726259	     -2.26606941	     -0.78478350	      0.97138481	      0.13160449	     26.21766000	     -1.82890115	     -1.25582837	    -33.07120716	     20.20531741	      0.07249482	     17.75078456	      3.99628700	     -4.73538156	    -16.74391729	     20.08092149	     -5.79141663	      4.78665222	      1.24408274	      4.32758589
      1.40000000	    -13.50909849	     -0.14486172	     -2.36955314	     -0.78401951	      0.97118440	      0.13137956	     26.84397507	     -2.06348557	     -1.05102922	    -34.40978671	     20.31134242	      0.20741566	     17.54751651	      4.25607772	     -4.86645741	    -16.69323666	     20.11921555	     -5.84306750	      4.50340390	      0.97348831	      4.33296448
      1.41000000	    -13.36930691	      0.06246999	     -2.46200880	     -0.78315915	      0.97103444	      0.13118162	     27.44840635	     -2.26223869	     -0.87851870	    -35.69666387	     20.40750697	      0.31553607	     17.32728111	      4.48139052	     -4.97628880	    -16.64959227	     20.16590966	     -5.89212553	      4.20826717	      0.74238252	      4.30617984
      1.42000000	    -13.22382571	      0.23362121	     -2.53850723	     -0.78221922	      0.97093440	      0.13097322	     28.03251493	     -2.42715627	     -0.73750461	    -36.90610983	     20.49064317	      0.39854766	     17.09697862	      4.67412257	     -5.06772169	    -16.60823455	     20.21537007	     -5.94258698	      3.90585436	      0.56020422	      4.25311050
      1.43000000	    -13.07482585	      0.35338261	     -2.59641529	     -0.78117354	      0.97089266	      0.13079490	     28.58525409	     -2.54231230	     -0.64715055	    -38.00876526	     20.55875929	      0.42657641	     16.85378889	      4.81571994	     -5.13204392	    -16.56572664	     20.27354149	     -5.98512233	      3.60463852	      0.43462992	      4.15982597
      1.44000000	    -12.92881644	      0.42288952	     -2.63039168	     -0.78003341	      0.97089985	      0.13060969	     29.11128990	     -2.61768434	     -0.62158204	    -38.98899077	     20.58406554	      0.41076653	     16.60754462	      4.90841794	     -5.18616527	    -16.52537681	     20.36489745	     -6.01764310	      3.30926555	      0.37327416	      4.02058681
      1.45000000	    -12.79566897	      0.48077826	     -2.66164788	     -0.77884139	      0.97093618	      0.13046749	     29.63623674	     -2.67462107	     -0.60670974	    -39.85389506	     20.60512897	      0.36850708	     16.36932505	      4.99052891	     -5.19804395	    -16.48496467	     20.39732126	     -6.05540389	      3.02929249	      0.32216149	      3.89420185
      1.46000000	    -12.67825838	      0.49030121	     -2.66695911	     -0.77755904	      0.97099996	      0.13033081	     30.14148639	     -2.69713318	     -0.66468095	    -40.57110987	     20.56556212	      0.31453864	     16.14046945	      5.02289363	     -5.20484136	    -16.44334371	     20.46313637	     -6.08374019	      2.77104602	      0.32902204	      3.72242759
      1.47000000	    -12.56703726	      0.46066574	     -2.66476042	     -0.77623055	      0.97109580	      0.13022238	     30.62611995	     -2.68483924	     -0.76644511	    -41.14380232	     20.46390885	      0.28524940	     15.92856463	      5.01059277	     -5.21612605	    -16.43251146	     20.54236601	     -6.09542561	      2.51455049	      0.38143284	      3.55687248
      1.48000000	    -12.48728356	      0.44227177	     -2.62614150	     -0.77484018	      0.97117314	      0.13006919	     31.12399578	     -2.70854325	     -0.92537924	    -41.58656014	     20.33017280	      0.21943382	     15.73496249	      5.02467320	     -5.14555932	    -16.39738900	     20.58067200	     -6.11747050	      2.29799526	      0.42137873	      3.34380776
      1.49000000	    -12.42681601	      0.37946101	     -2.57918365	     -0.77335897	      0.97125328	      0.12994031	     31.60594056	     -2.69972783	     -1.14645152	    -41.87581373	     20.14216384	      0.16721116	     15.56497432	      4.98724404	     -5.08953087	    -16.38307511	     20.64108840	     -6.14101857	      2.10630124	      0.51352560	      3.13185858
      1.50000000	    -12.36925227	      0.30608032	     -2.52661281	     -0.77182251	      0.97134622	      0.12983112	     32.06654250	     -2.68913104	     -1.39434277	    -42.02793786	     19.90207376	      0.14651229	     15.40524823	      4.93761091	     -5.02381262	    -16.39081425	     20.71315776	     -6.15303639	      1.91246439	      0.61606511	      2.92351672
      1.51000000	    -12.31029874	      0.23018954	     -2.47409487	     -0.77023141	      0.97145020	      0.12975299	     32.50734742	     -2.67808331	     -1.64945683	    -42.05786201	     19.63176867	      0.14925941	     15.24961961	      4.88321888	     -4.95503874	    -16.41623458	     20.78946423	     -6.15671707	      1.71049041	      0.71891398	      2.72814991
      1.52000000	    -12.25868572	      0.13857210	     -2.41281633	     -0.76855319	      0.97155146	      0.12967725	     32.92857434	     -2.66439381	     -1.94002469	    -41.96146281	     19.36564584	      0.16027773	     15.09686927	      4.81306930	     -4.87844400	    -16.44285373	     20.87242914	     -6.15538081	      1.51612484	      0.84150105	      2.53330831
      1.53000000	    -12.21052306	      0.03490159	     -2.35028290	     -0.76678166	      0.97164885	      0.12963634	     33.32743674	     -2.64142573	     -2.24477841	    -41.74874049	     19.12888373	      0.17800911	     14.94413480	      4.72768166	     -4.79890987	    -16.47361153	     20.96477798	     -6.14828395	      1.32499435	      0.97437044	      2.34596292
      1.54000000	    -12.16421036	     -0.07166294	     -2.29338263	     -0.76492034	      0.97173449	      0.12963799	     33.70808270	     -2.61127138	     -2.54290279	    -41.43181394	     18.93402551	      0.20560229	     14.78731892	      4.63413192	     -4.73416978	    -16.50299919	     21.06919866	     -6.13519964	      1.13516866	      1.10842910	      2.17751335
